<?xml version="1.0" encoding="UTF-8" standalone="yes"?>
<svg version="1.1" id="Layer_1" xmlns="http://www.w3.org/2000/svg" xmlns:xlink="http://www.w3.org/1999/xlink" x="0px" y="0px" viewBox="0 0 222.1 315" style="enable-background:new 0 0 222.1 315;" xml:space="preserve">
      <style type="text/css">.st0{fill:url(#SVGID_1_);}	.st1{opacity:0.15;fill:#FFFFFF;enable-background:new    ;}	.st2{opacity:0.3;}	.st3{fill:url(#SVGID_2_);}	.st4{fill:url(#SVGID_3_);}	.st5{opacity:0.2;fill:url(#SVGID_4_);enable-background:new    ;}</style>
    <g id="color_index_g">
              <linearGradient id="SVGID_1_" gradientUnits="userSpaceOnUse" x1="5.6753" y1="1232.8929" x2="227.1102" y2="1065.2045" gradientTransform="matrix(1 0 0 1 0 -1018)">
                      <stop offset="0" style="stop-color:#211AED"/>
            <stop offset="1" style="stop-color:#DF71FB"/>
                  </linearGradient>
        <path class="st0" d="M216,42.3c0.3-0.3,0.6-0.6,1-0.9l1.5-1.2c4.2-3.4,4.9-9.6,1.3-13.8c-3.4-4-9.6-4.4-13.7-1l-0.2,0.2&#x9;&#x9;c-5.1,4-12.3,3.7-17-0.8c-6.9-6.5-15.1-11.3-21.2-14.4c-0.4-0.2-0.8-0.4-1.2-0.6c-4.8-2.3-10.4-1.7-14.6,1.6l-8.5,6.8&#x9;&#x9;c-0.1,0-0.1,0.1-0.2,0.1c-4.2,3.2-10.4,2.4-13.6-1.9c-2.9-3.8-2.3-9.1,0.9-12.6c0,0,0,0,0,0c1.3-1.3,0.5-3.6-1.3-3.7&#x9;&#x9;c-14.4-0.8-27.1,2-36.9,5.4c-32.5,11.5-57,39.8-63.1,74.5c-0.6,3.3-2.3,6.3-5,8.5l-18,14.4c-4.1,3.3-5.2,9.4-2,13.6&#x9;&#x9;c3.3,4.4,9.5,5.2,13.8,1.8c3.9-3.1,9.8-0.3,9.8,4.7v16.2c0,11.5,13.3,17.9,22.3,10.7l50.5-40.3c0.6-0.5,0.5-1.4-0.2-1.6L57.6,90&#x9;&#x9;c-1.2-0.5-1.5-2.1-0.4-3l3.7-2.9c2.4-1.9,5.3-2.9,8.3-2.9l63.8-0.5c2.5,0,4.9-0.9,6.8-2.4l26.4-21.1c0.3-0.2,0.5-0.4,0.8-0.6&#x9;&#x9;c4.1-2.7,9.7-2.1,12.9,1.6c3.2,3.8,3,9.1-0.1,12.7c0,0.1-0.1,0.1-0.2,0.2c-0.3,0.4-0.6,0.7-1,1c0,0,0,0,0,0l-4,3.2L32.9,188.4&#x9;&#x9;c-0.3,0.2-0.5,0.4-0.8,0.7c-2.8,2.6-4.4,6.2-4.4,10.1v62c0,4.4,4.6,6.9,8.2,5c0.3-0.2,0.6-0.4,0.9-0.6c4.1-3.3,10.3-3,13.7,1&#x9;&#x9;c3.4,4,3,10-0.9,13.4c0,0-0.1,0-0.1,0.1l-8.8,7c-6.9,5.5-7,16-0.1,21.4c4.5,3.5,10.6,6.4,18.6,6.5c9.1,0.1,17.4-3.5,23.4-9.5&#x9;&#x9;c5.8-5.8,9.4-13.9,9.4-22.8v-30.1c0-4.2,1.9-8.1,5.2-10.7l13.9-11.1c4.2-3.4,4.9-9.6,1.3-13.8c-3.1-3.7-8.5-4.3-12.6-1.8&#x9;&#x9;c-0.4,0.2-0.8,0.5-1.1,0.8c-0.8,0.6-1.7,0.9-2.6,0.9c-2.1,0-4.1-1.7-4.1-4.1v-19.2h32.3c54.1,0,97.9-44.4,96.7-98.8&#x9;&#x9;c-0.3-13.1-3.2-25.6-8.2-37C210.6,52.5,211.9,46.3,216,42.3z M133.4,161.6c-0.7,3-2.4,5.6-4.8,7.5l-3.5,2.8c-1,0.8-2.6,0.2-2.8-1.1&#x9;&#x9;l-6.8-38.4l30.5-24.3L133.4,161.6z M21.5,188.1l-6.3,5.1c-4.2,3-10.2,2.2-13.4-2.1c-3.2-4.2-2.1-10.3,2-13.6l5.6-4.5&#x9;&#x9;c4.1-3,10-2.6,13.4,1.3C26.4,178.4,25.8,184.7,21.5,188.1z"/>
          </g>
    <g>
              <path class="st1" d="M178.6,72c0.4-0.3,0.7-0.6,1-1C179.1,71.6,178.7,71.9,178.6,72z"/>
          </g>
    <g class="st2">
              <linearGradient id="SVGID_2_" gradientUnits="userSpaceOnUse" x1="-0.9894" y1="1208.2795" x2="216.9105" y2="1090.1411" gradientTransform="matrix(1 0 0 1 0 -1018)">
                      <stop offset="0" style="stop-color:#000000;stop-opacity:0"/>
            <stop offset="1" style="stop-color:#000000"/>
                  </linearGradient>
        <linearGradient id="SVGID_3_" gradientUnits="userSpaceOnUse" x1="-34.7933" y1="1152.6392" x2="183.1065" y2="1034.5006" gradientTransform="matrix(1 0 0 1 0 -1018)">
                      <stop offset="0" style="stop-color:#000000;stop-opacity:0"/>
            <stop offset="1" style="stop-color:#000000"/>
                  </linearGradient>
        <path class="st3" d="M9.5,173l-5.6,4.5c-4.1,3.3-5.2,9.4-2,13.6c3.2,4.2,9.1,5.1,13.4,2.1l6.3-5.1c4.2-3.4,4.9-9.6,1.3-13.8&#x9;&#x9;C19.5,170.3,13.6,169.9,9.5,173z"/>
        <path class="st4" d="M188.9,24.7c-6.9-6.5-15.1-11.3-21.2-14.4c-0.4-0.2-0.8-0.4-1.2-0.6c-4.8-2.3-10.4-1.7-14.6,1.6l-8.5,6.8&#x9;&#x9;c-0.1,0-0.1,0.1-0.2,0.1c-4.2,3.2-10.4,2.4-13.6-1.9c-2.9-3.8-2.3-9.1,0.9-12.6c0,0,0,0,0,0c1.3-1.3,0.5-3.6-1.3-3.7&#x9;&#x9;c-14.4-0.8-27.1,2-36.9,5.4c-32.5,11.5-57,39.8-63.1,74.5c-0.6,3.3-2.3,6.3-5,8.5l-18,14.4c-4.1,3.3-5.2,9.4-2,13.6&#x9;&#x9;c3.3,4.4,9.5,5.2,13.8,1.8c3.9-3.1,9.8-0.3,9.8,4.7v16.2c0,11.5,13.3,17.9,22.3,10.7l50.5-40.3c0.6-0.5,0.5-1.4-0.2-1.6L57.6,90&#x9;&#x9;c-1.2-0.5-1.5-2.1-0.4-3l3.7-2.9c2.4-1.9,5.3-2.9,8.3-2.9l63.8-0.5c2.5,0,4.9-0.9,6.8-2.4l26.4-21.1c0.3-0.2,0.5-0.4,0.8-0.6&#x9;&#x9;c4.1-2.7,9.7-2.1,12.9,1.6c3.2,3.8,3,9.1-0.1,12.7C185,65.7,204.7,44,188.9,24.7z"/>
          </g>
    <g>
              <linearGradient id="SVGID_4_" gradientUnits="userSpaceOnUse" x1="75.327" y1="1334.9263" x2="75.327" y2="1249.6458" gradientTransform="matrix(1 0 0 1 0 -1018)">
                      <stop offset="0" style="stop-color:#FFFFFF;stop-opacity:0"/>
            <stop offset="1" style="stop-color:#FFFFFF"/>
                  </linearGradient>
        <path class="st5" d="M111.3,230.8l-13.9,11.1c-3.3,2.6-5.2,6.6-5.2,10.7v30.1c0,8.9-3.6,17-9.4,22.8c-6,6-14.3,9.6-23.4,9.5&#x9;&#x9;c-8.1-0.1-14.2-3-18.6-6.5c-6.9-5.4-6.8-15.9,0.1-21.4l8.8-7c0,0,0,0,0.1-0.1c3.8-3.5,4.3-9.4,0.9-13.4c-3.4-4-9.6-4.4-13.7-1&#x9;&#x9;c-0.3,0.2-0.6,0.4-0.9,0.6l64-50.9c4.1-2.5,9.5-1.9,12.6,1.8C116.2,221.2,115.6,227.4,111.3,230.8z"/>
          </g>
  </svg>